<?xml version="1.0" encoding="UTF-8"?>
<svg id="Layer_2" data-name="Layer 2" xmlns="http://www.w3.org/2000/svg" viewBox="0 0 146.59 146.62">
  <g id="_ëîé_1" data-name="‘ëîé_1">
    <rect x="59.75" y="23.72" width="35.53" height="7.11" transform="translate(3.42 62.8) rotate(-45)"/>
    <rect x="39.65" y=".31" width="7.11" height="35.53" transform="translate(-3.21 11.82) rotate(-15.03)"/>
    <rect x="14.52" y="25.44" width="7.11" height="35.53" transform="translate(-28.33 49.48) rotate(-75)"/>
    <rect x="9.51" y="73.97" width="35.53" height="7.11" transform="translate(-46.83 41.99) rotate(-45)"/>
    <path d="M146.59,76.4l-99.44-29.25,29.25,99.47,16.85-28.24,24.46,24.46,25.12-25.12-24.41-24.42,28.17-16.9ZM132.79,117.72l-15.08,15.07-25.89-25.89-13.19,22.11-20.99-71.37,71.4,21-22.08,13.25,25.83,25.83Z"/>
  </g>
</svg>