<?xml version="1.0" encoding="UTF-8"?>
<svg id="Layer_2" data-name="Layer 2" xmlns="http://www.w3.org/2000/svg" viewBox="0 0 88.26 90.84">
  <g id="ICONS">
    <path d="M38.7,5.15C20.2,5.15,5.15,20.2,5.15,38.7s15.05,33.54,33.55,33.54,33.54-15.05,33.54-33.54S57.19,5.15,38.7,5.15ZM38.7,69.66c-17.08,0-30.97-13.89-30.97-30.96S21.62,7.73,38.7,7.73s30.96,13.89,30.96,30.97-13.89,30.96-30.96,30.96Z"/>
    <path d="M68.14,63.74c5.98-7.01,9.25-15.86,9.25-25.04C77.39,17.36,60.03,0,38.7,0S0,17.36,0,38.7s17.36,38.69,38.7,38.69c7.96,0,15.58-2.41,22.12-6.99l20.45,20.44,6.99-6.98-20.12-20.12ZM61.08,67.01l-.89.66c-6.29,4.67-13.72,7.14-21.49,7.14-19.92,0-36.12-16.2-36.12-36.11S18.78,2.58,38.7,2.58s36.11,16.2,36.11,36.12c0,8.95-3.33,17.56-9.39,24.23l-.83.91,20.02,20.02-3.34,3.33-20.19-20.18Z"/>
    <path d="M64.59,63.84l.83-.91c6.06-6.67,9.39-15.28,9.39-24.23,0-19.92-16.2-36.12-36.11-36.12S2.58,18.78,2.58,38.7s16.2,36.11,36.12,36.11c7.77,0,15.2-2.47,21.49-7.14l.89-.66,20.19,20.18,3.34-3.33-20.02-20.02ZM38.7,72.24c-18.5,0-33.55-15.05-33.55-33.54S20.2,5.15,38.7,5.15s33.54,15.05,33.54,33.55-15.05,33.54-33.54,33.54Z"/>
    <g>
      <rect x="35.51" y="23.8" width="6.36" height="29.79"/>
      <rect x="35.51" y="23.8" width="6.36" height="29.79" transform="translate(77.39) rotate(90)"/>
    </g>
  </g>
</svg>