<?xml version="1.0" encoding="UTF-8"?>
<svg id="Layer_2" data-name="Layer 2" xmlns="http://www.w3.org/2000/svg" viewBox="0 0 2031.79 1985.06">
  <defs>
    <style>
      .cls-1 {
        fill: #2a5699;
      }

      .cls-2 {
        fill: #fff;
      }
    </style>
  </defs>
  <g id="Layer_1-2" data-name="Layer 1">
    <path class="cls-1" d="M1061.86,0h138.03v184.66c246.98,1.38,493.73-2.55,740.49,1.38,52.63-5.32,93.93,35.55,89.1,88.17,3.91,454.72-.92,909.65,2.31,1364.37-2.31,46.63,4.62,98.33-22.4,139.64-33.7,24.01-77.33,21.01-116.56,22.84-231.08-1.13-461.9-.66-692.94-.66v184.66h-144.25C704.35,1920.89,352.1,1862.04.11,1800.4-.13,1261.9.11,723.39.11,185.12,353.93,123.26,708.02,63.02,1061.88,0h-.02Z"/>
    <path class="cls-2" d="M1199.89,253.9h761.71v1477.25h-761.71v-184.66h600.13v-92.33h-600.13v-115.41h600.13v-92.33h-600.13v-115.41h600.13v-92.33h-600.13v-115.41h600.13v-92.33h-600.13v-115.41h600.13v-92.33h-600.13v-115.41h600.13v-92.33h-600.13v-161.57ZM476.96,661.75c43.86-2.53,87.71-4.38,131.57-6.68,30.69,155.81,62.08,311.37,95.32,466.48,26.09-160.19,54.95-319.92,82.86-479.87,46.16-1.61,92.33-4.15,138.27-6.92-52.17,223.66-97.87,449.18-154.89,671.45-38.56,20.09-96.26-.92-141.96,2.31-30.71-152.78-66.48-304.68-93.95-458.17-27,149.11-62.08,296.84-93.01,445.04-44.32-2.31-88.86-5.08-133.43-8.09-38.3-203.12-83.32-404.86-119.08-608.44,39.46-1.85,79.16-3.47,118.64-4.86,23.77,147.02,50.78,293.38,71.55,440.63,32.59-150.94,65.81-301.89,98.13-452.87h0Z"/>
  </g>
</svg>