<?xml version="1.0" encoding="UTF-8"?>
<svg id="Layer_2" xmlns="http://www.w3.org/2000/svg" version="1.1" viewBox="0 0 266.2 266.2">
  <!-- Generator: Adobe Illustrator 30.3.0, SVG Export Plug-In . SVG Version: 2.1.3 Build 182)  -->
  <defs>
    <style>
      .st0 {
        fill: #76b900;
        stroke: #76b900;
        stroke-miterlimit: 10;
        stroke-width: 4px;
      }
    </style>
  </defs>
  <g id="_ëîé_1">
    <g>
      <path class="st0" d="M224.4,41.8c-24.4-24.4-56.8-37.8-91.3-37.8s-66.9,13.4-91.3,37.8C17.4,66.2,4,98.6,4,133.1s13.4,66.9,37.8,91.3c24.4,24.4,56.8,37.8,91.3,37.8s66.9-13.4,91.3-37.8c24.4-24.4,37.8-56.8,37.8-91.3s-13.4-66.9-37.8-91.3h0ZM219.5,219.5c-23.1,23.1-53.7,35.8-86.4,35.8s-63.3-12.7-86.4-35.8c-23.1-23.1-35.8-53.7-35.8-86.4s12.7-63.3,35.8-86.4c23.1-23.1,53.7-35.8,86.3-35.8s63.3,12.7,86.4,35.8c23.1,23.1,35.8,53.7,35.8,86.4s-12.7,63.3-35.8,86.4h0Z"/>
      <rect class="st0" x="122.1" y="183.2" width="13.3" height="14.7"/>
      <path class="st0" d="M153.6,72c-5.2-2.4-11.3-3.7-18.4-3.7h-1.9c-18.1,0-30.5,7.7-37,23.2l9.1,4c2.3-6.2,5.8-10.7,10.3-13.6s10.4-4.4,17.6-4.4h1.6c7.7,0,13.7,1.9,18,5.8,4.3,3.8,6.5,9.2,6.5,16.1v2.6c0,4.4-1,8.5-2.9,12.2-1.9,3.7-4.8,6.9-8.6,9.6l-10.3,7.1c-5.4,3.6-9,7.1-10.9,10.6-1.9,3.4-2.9,8.1-2.9,13.9v11.5h10.3v-11.2c0-4.2.6-7.4,1.8-9.7,1.2-2.3,3.6-4.7,7.2-7.2l10.6-7.5c10.8-7.6,16.2-17.3,16.2-29.1v-3c0-6.5-1.4-12.1-4.3-16.7s-6.9-8.1-12-10.6h0Z"/>
    </g>
  </g>
</svg>