<?xml version="1.0" encoding="UTF-8"?>
<svg id="Layer_2" data-name="Layer 2" xmlns="http://www.w3.org/2000/svg" viewBox="0 0 613.02 697.95">
  <g id="Layer_1-2" data-name="Layer 1">
    <path d="M613.02,391.46c0-20.61-16.72-37.33-37.33-37.33s-37.33,16.72-37.33,37.33c0,64.01-25.94,121.98-67.89,163.93-41.95,41.95-99.92,67.89-163.96,67.89s-122-25.94-163.93-67.89c-41.95-41.95-67.92-99.92-67.92-163.93s25.97-122,67.92-163.96c38.66-38.66,90.94-63.72,149.02-67.44v70.13c.03,2.61.74,5.22,2.18,7.57,4.2,6.72,13.04,8.79,19.76,4.62l173.28-107.94c1.79-1.13,3.37-2.66,4.59-4.59,4.17-6.72,2.1-15.56-4.59-19.76L314.28,2.64c-2.35-1.67-5.22-2.64-8.31-2.64-7.94,0-14.37,6.43-14.37,14.34v70.98c-78.69,3.77-149.61,37.22-201.8,89.4C34.33,230.2,0,306.82,0,391.46s34.33,161.23,89.8,216.71c55.45,55.47,132.09,89.77,216.71,89.77s161.26-34.3,216.74-89.77c55.45-55.47,89.77-132.1,89.77-216.71h0Z"/>
  </g>
</svg>