<?xml version="1.0" encoding="UTF-8"?>
<svg id="Layer_2" data-name="Layer 2" xmlns="http://www.w3.org/2000/svg" viewBox="0 0 103.7 107.73">
  <g id="_ëîé_1" data-name="‘ëîé_1">
    <path d="M51.85,33.86c-11.03,0-20.01,8.97-20.01,20s8.98,20.01,20.01,20.01,20.01-8.97,20.01-20.01-8.98-20-20.01-20ZM51.85,70.79c-9.33,0-16.93-7.59-16.93-16.93s7.6-16.92,16.93-16.92,16.93,7.59,16.93,16.92-7.6,16.93-16.93,16.93ZM51.85,33.86c-11.03,0-20.01,8.97-20.01,20s8.98,20.01,20.01,20.01,20.01-8.97,20.01-20.01-8.98-20-20.01-20ZM51.85,70.79c-9.33,0-16.93-7.59-16.93-16.93s7.6-16.92,16.93-16.92,16.93,7.59,16.93,16.92-7.6,16.93-16.93,16.93ZM51.85,33.86c-11.03,0-20.01,8.97-20.01,20s8.98,20.01,20.01,20.01,20.01-8.97,20.01-20.01-8.98-20-20.01-20ZM51.85,70.79c-9.33,0-16.93-7.59-16.93-16.93s7.6-16.92,16.93-16.92,16.93,7.59,16.93,16.92-7.6,16.93-16.93,16.93Z"/>
    <path d="M90.05,58.13c.19-1.57.27-2.94.27-4.27,0-1.2-.07-2.48-.22-3.88l13.59-14.04-10.4-18.03-18.65,5c-2.25-1.66-4.61-3.05-7.03-4.15L62.24,0h-20.8l-4.99,18.61c-2.44,1.08-4.81,2.44-7.06,4.07l-18.99-4.75L0,35.95l13.65,13.65c-.19,1.57-.27,2.94-.27,4.26,0,1.21.07,2.49.22,3.88L0,71.79l10.4,18.02,18.65-4.99c2.25,1.66,4.61,3.05,7.03,4.14l5.37,18.77h20.8l4.99-18.61c2.44-1.08,4.81-2.44,7.06-4.07l18.99,4.75,10.4-18.02-13.65-13.65ZM51.85,73.87c-11.03,0-20.01-8.97-20.01-20.01s8.98-20,20.01-20,20.01,8.97,20.01,20-8.98,20.01-20.01,20.01Z"/>
  </g>
</svg>