<?xml version="1.0" encoding="UTF-8"?>
<svg id="Layer_2" data-name="Layer 2" xmlns="http://www.w3.org/2000/svg" viewBox="0 0 185.42 161.82">
  <defs>
    <style>
      .cls-1 {
        stroke: #000;
        stroke-miterlimit: 10;
        stroke-width: 6px;
      }
    </style>
  </defs>
  <g id="_ëîé_1" data-name="‘ëîé_1">
    <path class="cls-1" d="M182.42,68.13v6.68l-14.17,14.17-14.17-14.17v-6.68l11.75,11.75c-.56-39.88-33.13-72.16-73.13-72.16-19.56,0-37.95,7.62-51.78,21.46l-1.67,1.67-3.34-3.34,1.67-1.67C52.31,11.12,71.89,3,92.71,3c42.64,0,77.35,34.45,77.86,76.98l11.85-11.85ZM144.46,132.66c-13.82,13.82-32.2,21.44-51.75,21.44-40.01,0-72.57-32.28-73.13-72.15l11.75,11.75v-6.68l-14.17-14.17-14.17,14.17v6.68l11.85-11.85c.5,42.53,35.22,76.98,77.86,76.98,20.81,0,40.37-8.1,55.09-22.82l1.67-1.67-3.34-3.34-1.67,1.67Z"/>
  </g>
</svg>