<?xml version="1.0" encoding="UTF-8"?>
<svg id="Layer_2" data-name="Layer 2" xmlns="http://www.w3.org/2000/svg" viewBox="0 0 216.7 216.71">
  <g id="_ëîé_1" data-name="‘ëîé_1">
    <path d="M108.35,0C48.6,0,0,48.61,0,108.36s48.6,108.35,108.35,108.35,108.35-48.61,108.35-108.36S168.1,0,108.35,0ZM108.35,204.03c-52.76,0-95.68-42.92-95.68-95.68S55.59,12.68,108.35,12.68s95.68,42.92,95.68,95.68-42.92,95.67-95.68,95.67Z"/>
    <path d="M173.82,85.7c0,1.68-.67,3.29-1.86,4.48l-72.44,72.44c-1.19,1.19-2.8,1.86-4.48,1.86s-3.29-.67-4.48-1.86l-47.85-47.85c-1.18-1.19-1.85-2.8-1.85-4.48s.67-3.29,1.85-4.48l19.9-19.89c2.47-2.48,6.48-2.48,8.96,0l23.47,23.47,48.06-48.06c2.48-2.48,6.49-2.48,8.96,0l19.9,19.89c1.19,1.19,1.86,2.8,1.86,4.48Z"/>
  </g>
</svg>