<?xml version="1.0" encoding="UTF-8"?>
<svg id="Layer_2" data-name="Layer 2" xmlns="http://www.w3.org/2000/svg" viewBox="0 0 132.46 149.09">
  <defs>
    <style>
      .cls-1 {
        stroke: #000;
        stroke-miterlimit: 10;
        stroke-width: 3px;
      }
    </style>
  </defs>
  <g id="_ëîé_1" data-name="‘ëîé_1">
    <path class="cls-1" d="M130.83,80.28c-.63-16.02-7.09-30.55-17.35-41.53l.09-.1-3.38-3.39-.12.12c-11.02-10.2-25.58-16.6-41.61-17.15v-.1h-4.8v.13c-16.03.63-30.55,7.09-41.53,17.35l-.09-.09-3.4,3.38.11.12C8.56,50.04,2.16,64.6,1.61,80.64h-.11v4.79h.13c.64,16.03,7.09,30.55,17.36,41.53l-.1.11,3.39,3.38.11-.11c11.04,10.2,25.58,16.59,41.62,17.14v.11h4.8v-.13c16.02-.64,30.55-7.09,41.53-17.35l.1.09,3.38-3.39-.11-.11c10.2-11.04,16.6-25.58,17.15-41.62h.1v-4.8h-.13ZM110.33,123.31l-6.67-6.68-3.4,3.4,6.69,6.69c-10.11,9.39-23.44,15.32-38.14,15.95v-9.47h-4.8v9.48c-14.71-.54-28.07-6.4-38.23-15.73l6.68-6.68-3.4-3.38-6.68,6.69c-9.4-10.12-15.33-23.45-15.96-38.15h9.47v-4.79H6.41c.54-14.72,6.4-28.07,15.73-38.24l6.68,6.68,3.38-3.39-6.69-6.69c10.12-9.4,23.45-15.32,38.15-15.95v9.45h4.8v-9.47c14.71.55,28.06,6.41,38.23,15.73l-6.68,6.67,3.39,3.4,6.7-6.69c9.39,10.11,15.31,23.44,15.94,38.14h-9.45v4.8h9.47c-.55,14.72-6.41,28.07-15.73,38.23Z"/>
    <path class="cls-1" d="M85.38,44.83l-3.75-1.66-14.93,33.57c-.16-.01-.31-.05-.47-.05-3.4,0-6.16,2.77-6.16,6.17s2.76,6.16,6.16,6.16,6.17-2.76,6.17-6.16c0-1.76-.75-3.34-1.94-4.46l14.92-33.57ZM66.23,84.91c-1.13,0-2.05-.92-2.05-2.05s.92-2.06,2.05-2.06c.28,0,.55.06.79.16h.02c.73.33,1.25,1.05,1.25,1.9,0,1.13-.92,2.05-2.06,2.05Z"/>
    <rect class="cls-1" x="44.21" y="1.5" width="44.05" height="5"/>
    <g>
      <rect class="cls-1" x="55.56" y="4.99" width="5" height="14.88"/>
      <rect class="cls-1" x="71.91" y="4.99" width="5" height="14.88"/>
    </g>
  </g>
</svg>