<?xml version="1.0" encoding="UTF-8"?>
<svg id="Layer_2" data-name="Layer 2" xmlns="http://www.w3.org/2000/svg" viewBox="0 0 105.28 105.28">
  <g id="_ëîé_1" data-name="‘ëîé_1">
    <path d="M52.64,105.28c29.03,0,52.64-23.62,52.64-52.64S81.67,0,52.64,0,0,23.61,0,52.64s23.61,52.64,52.64,52.64ZM52.64,6.19c25.61,0,46.45,20.83,46.45,46.45s-20.83,46.45-46.45,46.45S6.19,78.25,6.19,52.64,27.03,6.19,52.64,6.19Z"/>
    <rect x="47.53" y="74.72" width="7.33" height="7.89"/>
    <path d="M45.52,30.11c1.93-1.29,4.46-1.93,7.57-1.93h.73c3.22,0,5.75.82,7.61,2.46,1.85,1.64,2.78,3.9,2.78,6.8v1.13c0,1.93-.43,3.69-1.29,5.27s-2.17,3.02-3.94,4.31l-4.67,3.38c-2.36,1.61-3.97,3.22-4.83,4.83-.86,1.61-1.29,3.73-1.29,6.36v5.15h6.12v-4.99c0-1.77.28-3.18.85-4.23.56-1.05,1.6-2.13,3.1-3.26l4.99-3.62c4.77-3.44,7.16-7.84,7.16-13.2v-1.37c0-3-.67-5.58-2.01-7.73-1.34-2.15-3.24-3.79-5.68-4.91-2.44-1.13-5.33-1.69-8.65-1.69h-.89c-8.64,0-14.41,3.62-17.31,10.87l5.23,2.33c1.02-2.68,2.5-4.67,4.43-5.96Z"/>
  </g>
</svg>